<svg xmlns="http://www.w3.org/2000/svg" width="1280" height="760" viewBox="0 0 1280 760" role="img" aria-labelledby="title desc">
	<title id="title">Recall Scheduler review popup overview</title>
	<desc id="desc">A preview of the review popup with toolbar, search, status navigation, leaderboard, and review cards.</desc>
	<defs>
		<linearGradient id="panel" x1="0" y1="0" x2="1" y2="1">
			<stop offset="0" stop-color="#fff7dc"/>
			<stop offset="0.46" stop-color="#e8f6f3"/>
			<stop offset="1" stop-color="#dfe8ff"/>
		</linearGradient>
		<linearGradient id="card" x1="0" y1="0" x2="1" y2="1">
			<stop offset="0" stop-color="#f9fbff"/>
			<stop offset="1" stop-color="#e6f3f1"/>
		</linearGradient>
		<filter id="shadow" x="-20%" y="-20%" width="140%" height="140%">
			<feDropShadow dx="0" dy="18" stdDeviation="22" flood-color="#5f6478" flood-opacity="0.22"/>
		</filter>
	</defs>
	<rect width="1280" height="760" rx="36" fill="#edf0f5"/>
	<rect x="74" y="58" width="1132" height="644" rx="36" fill="url(#panel)" stroke="#b7a3d6" stroke-width="3" filter="url(#shadow)"/>
	<g transform="translate(126 102)">
		<rect x="0" y="0" width="44" height="44" rx="10" fill="#fff8d9" stroke="#6d613c" stroke-width="4"/>
		<path d="M14 13h16v5H14zm0 8h16v5H14zm0 8h10v5H14z" fill="#8c7a4c"/>
		<text x="70" y="33" font-size="34" font-weight="800" fill="#333a5a">今日面板</text>
		<text x="70" y="68" font-size="19" fill="#6f7896">添加、复习、归档都在一个小弹窗里完成</text>
		<rect x="922" y="6" width="82" height="36" rx="18" fill="#e4f4d8" stroke="#9dbc9a" stroke-width="2"/>
		<text x="963" y="31" font-size="19" font-weight="800" text-anchor="middle" fill="#506f51">v1.1.4</text>
	</g>
	<g transform="translate(126 196)" font-size="20" font-weight="700" fill="#30364f">
		<rect x="0" y="0" width="184" height="54" rx="23" fill="#eef8fb" stroke="#b9b8d0" stroke-width="3"/>
		<text x="92" y="35" text-anchor="middle">添加当前笔记</text>
		<rect x="212" y="0" width="148" height="54" rx="23" fill="#eef8fb" stroke="#b9b8d0" stroke-width="3"/>
		<text x="286" y="35" text-anchor="middle">手动新增</text>
		<rect x="388" y="0" width="112" height="54" rx="23" fill="#d5efe2" stroke="#91b491" stroke-width="3"/>
		<text x="444" y="35" text-anchor="middle">今日</text>
		<rect x="528" y="0" width="112" height="54" rx="23" fill="#eef8fb" stroke="#b9b8d0" stroke-width="3"/>
		<text x="584" y="35" text-anchor="middle">全部</text>
		<rect x="668" y="0" width="112" height="54" rx="23" fill="#eef8fb" stroke="#b9b8d0" stroke-width="3"/>
		<text x="724" y="35" text-anchor="middle">归档</text>
	</g>
	<rect x="126" y="278" width="1028" height="56" rx="18" fill="#ffffff" stroke="#d1d8e3" stroke-width="3"/>
	<circle cx="157" cy="306" r="10" fill="none" stroke="#8892a7" stroke-width="4"/>
	<path d="m165 314 12 12" stroke="#8892a7" stroke-width="4" stroke-linecap="round"/>
	<text x="196" y="314" font-size="20" fill="#8b94a8">搜索标题、路径、锚点、摘要或状态...</text>
	<g transform="translate(126 372)">
		<rect width="206" height="260" rx="24" fill="#f9fbff" stroke="#ccd6d6" stroke-width="2"/>
		<text x="24" y="40" font-size="18" font-weight="800" fill="#424b67">状态导航</text>
		<g font-size="18" font-weight="700" fill="#32394e">
			<rect x="18" y="62" width="170" height="42" rx="18" fill="#d8f0e4" stroke="#9fbe9f" stroke-width="2"/>
			<text x="54" y="90">今天到期</text><text x="160" y="90" text-anchor="middle" fill="#496b4b">5</text>
			<rect x="18" y="112" width="170" height="42" rx="18" fill="#fff" stroke="#e0e2e8" stroke-width="2"/>
			<text x="54" y="140">未来到期</text><text x="160" y="140" text-anchor="middle" fill="#6d7488">18</text>
			<rect x="18" y="162" width="170" height="42" rx="18" fill="#fff" stroke="#e0e2e8" stroke-width="2"/>
			<text x="54" y="190">长期复习</text><text x="160" y="190" text-anchor="middle" fill="#6d7488">42</text>
			<rect x="18" y="212" width="170" height="42" rx="18" fill="#fff" stroke="#e0e2e8" stroke-width="2"/>
			<text x="54" y="240">重新学习</text><text x="160" y="240" text-anchor="middle" fill="#6d7488">1</text>
		</g>
	</g>
	<g transform="translate(364 372)">
		<rect width="790" height="120" rx="24" fill="url(#card)" stroke="#ccd6d6" stroke-width="2"/>
		<text x="28" y="42" font-size="22" font-weight="800" fill="#343a55">复习排行榜</text>
		<text x="28" y="72" font-size="16" fill="#727b92">按单个记忆项统计前三</text>
		<rect x="572" y="28" width="64" height="34" rx="15" fill="#d5efe2" stroke="#91b491" stroke-width="2"/><text x="604" y="51" font-size="16" font-weight="800" text-anchor="middle" fill="#46694a">本周</text>
		<rect x="650" y="28" width="64" height="34" rx="15" fill="#fff" stroke="#d1d8e3" stroke-width="2"/><text x="682" y="51" font-size="16" text-anchor="middle" fill="#444b60">本月</text>
		<rect x="728" y="28" width="64" height="34" rx="15" fill="#fff" stroke="#d1d8e3" stroke-width="2"/><text x="760" y="51" font-size="16" text-anchor="middle" fill="#444b60">本年</text>
		<g transform="translate(28 86)" font-size="15" fill="#4b5368">
			<text x="0" y="0">1. 162-寻找峰值 · 复习 12 次</text>
			<text x="268" y="0">2. 713-乘积小于 K · 复习 9 次</text>
			<text x="558" y="0">3. 209-最短子数组 · 复习 7 次</text>
		</g>
	</g>
	<g transform="translate(364 520)">
		<rect width="790" height="112" rx="24" fill="url(#card)" stroke="#c6d0df" stroke-width="2"/>
		<text x="28" y="42" font-size="24" font-weight="800" fill="#343a55">162-寻找峰值</text>
		<text x="28" y="73" font-size="17" fill="#476b4f">topics/02-二分算法/162-寻找峰值.md</text>
		<text x="360" y="43" font-size="20" font-weight="800" fill="#c24a35">已逾期 7 分</text>
		<rect x="360" y="58" width="200" height="9" rx="5" fill="#dce1ea"/>
		<rect x="360" y="58" width="150" height="9" rx="5" fill="#c93329"/>
		<text x="582" y="73" font-size="16" fill="#6f7896">上次复习：2026/06/18 22:14</text>
	</g>
</svg>
